<mxfile host="app.diagrams.net" modified="2023-10-04T14:23:19.455Z" agent="Mozilla/5.0 (Windows NT 10.0; Win64; x64) AppleWebKit/537.36 (KHTML, like Gecko) Chrome/117.0.0.0 Safari/537.36 Edg/117.0.2045.47" etag="1qTMyr_uQaZunz841Vtb" version="22.0.0" type="onedrive">
  <diagram name="Page-1" id="irwAd87a7v6Wsh_JCgQT">
    <mxGraphModel grid="1" page="1" gridSize="10" guides="1" tooltips="1" connect="1" arrows="1" fold="1" pageScale="1" pageWidth="850" pageHeight="1100" background="#FFFF66" math="0" shadow="0">
      <root>
        <mxCell id="0" />
        <mxCell id="1" parent="0" />
        <mxCell id="eB3IDwPpNGxF3hL3ic3N-13" style="edgeStyle=orthogonalEdgeStyle;rounded=0;orthogonalLoop=1;jettySize=auto;html=1;exitX=0.5;exitY=1;exitDx=0;exitDy=0;exitPerimeter=0;" edge="1" parent="1" source="eB3IDwPpNGxF3hL3ic3N-2">
          <mxGeometry relative="1" as="geometry">
            <mxPoint x="430" y="120" as="targetPoint" />
          </mxGeometry>
        </mxCell>
        <mxCell id="eB3IDwPpNGxF3hL3ic3N-2" value="Mulai" style="strokeWidth=2;html=1;shape=mxgraph.flowchart.start_1;whiteSpace=wrap;" vertex="1" parent="1">
          <mxGeometry x="340" y="20" width="180" height="50" as="geometry" />
        </mxCell>
        <mxCell id="eB3IDwPpNGxF3hL3ic3N-24" style="edgeStyle=orthogonalEdgeStyle;rounded=0;orthogonalLoop=1;jettySize=auto;html=1;exitX=0.5;exitY=1;exitDx=0;exitDy=0;" edge="1" parent="1" source="eB3IDwPpNGxF3hL3ic3N-19">
          <mxGeometry relative="1" as="geometry">
            <mxPoint x="430" y="300" as="targetPoint" />
          </mxGeometry>
        </mxCell>
        <mxCell id="eB3IDwPpNGxF3hL3ic3N-19" value="" style="verticalLabelPosition=bottom;verticalAlign=top;html=1;shape=hexagon;perimeter=hexagonPerimeter2;arcSize=6;size=0.27;" vertex="1" parent="1">
          <mxGeometry x="245" y="120" width="370" height="120" as="geometry" />
        </mxCell>
        <mxCell id="eB3IDwPpNGxF3hL3ic3N-22" value="DISKON_USIA_BAWAH_18 = 0.10;&#xa;    const double DISKON_USIA_18_65 = 0.05;&#xa;    const double DISKON_USIA_DIATAS_65 = 0.15;" style="text;whiteSpace=wrap;" vertex="1" parent="1">
          <mxGeometry x="305" y="145" width="310" height="70" as="geometry" />
        </mxCell>
        <mxCell id="eB3IDwPpNGxF3hL3ic3N-25" value="Masukan Nama Barang" style="shape=parallelogram;html=1;strokeWidth=2;perimeter=parallelogramPerimeter;whiteSpace=wrap;rounded=1;arcSize=12;size=0.23;" vertex="1" parent="1">
          <mxGeometry x="280" y="300" width="310" height="120" as="geometry" />
        </mxCell>
        <mxCell id="eB3IDwPpNGxF3hL3ic3N-29" style="edgeStyle=orthogonalEdgeStyle;rounded=0;orthogonalLoop=1;jettySize=auto;html=1;" edge="1" parent="1" source="eB3IDwPpNGxF3hL3ic3N-27">
          <mxGeometry relative="1" as="geometry">
            <mxPoint x="420" y="690" as="targetPoint" />
          </mxGeometry>
        </mxCell>
        <mxCell id="eB3IDwPpNGxF3hL3ic3N-27" value="Masukan Jumlah Barang" style="shape=parallelogram;html=1;strokeWidth=2;perimeter=parallelogramPerimeter;whiteSpace=wrap;rounded=1;arcSize=12;size=0.23;" vertex="1" parent="1">
          <mxGeometry x="265" y="500" width="320" height="120" as="geometry" />
        </mxCell>
        <mxCell id="eB3IDwPpNGxF3hL3ic3N-28" style="edgeStyle=orthogonalEdgeStyle;rounded=0;orthogonalLoop=1;jettySize=auto;html=1;entryX=0.549;entryY=-0.027;entryDx=0;entryDy=0;entryPerimeter=0;" edge="1" parent="1" source="eB3IDwPpNGxF3hL3ic3N-25" target="eB3IDwPpNGxF3hL3ic3N-27">
          <mxGeometry relative="1" as="geometry" />
        </mxCell>
        <mxCell id="eB3IDwPpNGxF3hL3ic3N-33" style="edgeStyle=orthogonalEdgeStyle;rounded=0;orthogonalLoop=1;jettySize=auto;html=1;" edge="1" parent="1" source="eB3IDwPpNGxF3hL3ic3N-30">
          <mxGeometry relative="1" as="geometry">
            <mxPoint x="415" y="860" as="targetPoint" />
          </mxGeometry>
        </mxCell>
        <mxCell id="eB3IDwPpNGxF3hL3ic3N-30" value="Masukan Usia Pembeli" style="shape=parallelogram;html=1;strokeWidth=2;perimeter=parallelogramPerimeter;whiteSpace=wrap;rounded=1;arcSize=12;size=0.23;" vertex="1" parent="1">
          <mxGeometry x="245" y="690" width="340" height="110" as="geometry" />
        </mxCell>
        <mxCell id="eB3IDwPpNGxF3hL3ic3N-38" style="edgeStyle=orthogonalEdgeStyle;rounded=0;orthogonalLoop=1;jettySize=auto;html=1;" edge="1" parent="1" source="eB3IDwPpNGxF3hL3ic3N-32">
          <mxGeometry relative="1" as="geometry">
            <mxPoint x="417.5" y="1260" as="targetPoint" />
          </mxGeometry>
        </mxCell>
        <mxCell id="eB3IDwPpNGxF3hL3ic3N-32" value="Diskon umur dibawah 18" style="strokeWidth=2;html=1;shape=mxgraph.flowchart.decision;whiteSpace=wrap;" vertex="1" parent="1">
          <mxGeometry x="307.5" y="1010" width="220" height="180" as="geometry" />
        </mxCell>
        <mxCell id="eB3IDwPpNGxF3hL3ic3N-36" style="edgeStyle=orthogonalEdgeStyle;rounded=0;orthogonalLoop=1;jettySize=auto;html=1;" edge="1" parent="1" source="eB3IDwPpNGxF3hL3ic3N-35">
          <mxGeometry relative="1" as="geometry">
            <mxPoint x="415" y="1010" as="targetPoint" />
          </mxGeometry>
        </mxCell>
        <mxCell id="eB3IDwPpNGxF3hL3ic3N-35" value="Total Harga = harga barang x jumlah barang" style="rounded=0;whiteSpace=wrap;html=1;" vertex="1" parent="1">
          <mxGeometry x="302.5" y="860" width="225" height="90" as="geometry" />
        </mxCell>
        <mxCell id="eB3IDwPpNGxF3hL3ic3N-42" style="edgeStyle=orthogonalEdgeStyle;rounded=0;orthogonalLoop=1;jettySize=auto;html=1;" edge="1" parent="1" source="eB3IDwPpNGxF3hL3ic3N-39">
          <mxGeometry relative="1" as="geometry">
            <mxPoint x="415" y="1570" as="targetPoint" />
          </mxGeometry>
        </mxCell>
        <mxCell id="eB3IDwPpNGxF3hL3ic3N-54" style="edgeStyle=orthogonalEdgeStyle;rounded=0;orthogonalLoop=1;jettySize=auto;html=1;" edge="1" parent="1" source="eB3IDwPpNGxF3hL3ic3N-39">
          <mxGeometry relative="1" as="geometry">
            <mxPoint x="640" y="1375" as="targetPoint" />
          </mxGeometry>
        </mxCell>
        <mxCell id="eB3IDwPpNGxF3hL3ic3N-39" value="" style="rhombus;whiteSpace=wrap;html=1;" vertex="1" parent="1">
          <mxGeometry x="286" y="1260" width="258" height="230" as="geometry" />
        </mxCell>
        <mxCell id="eB3IDwPpNGxF3hL3ic3N-41" value="DISKON_USIA_18_65 = 0.05" style="text;whiteSpace=wrap;" vertex="1" parent="1">
          <mxGeometry x="322.5" y="1360" width="190" height="40" as="geometry" />
        </mxCell>
        <mxCell id="eB3IDwPpNGxF3hL3ic3N-62" style="edgeStyle=orthogonalEdgeStyle;rounded=0;orthogonalLoop=1;jettySize=auto;html=1;" edge="1" parent="1" source="eB3IDwPpNGxF3hL3ic3N-49">
          <mxGeometry relative="1" as="geometry">
            <mxPoint x="423" y="1760" as="targetPoint" />
          </mxGeometry>
        </mxCell>
        <mxCell id="eB3IDwPpNGxF3hL3ic3N-49" value="total harga&amp;nbsp; = harbar x jumbar x&amp;nbsp;DISKON_USIA_DIATAS_65 = 0.15" style="rounded=0;whiteSpace=wrap;html=1;" vertex="1" parent="1">
          <mxGeometry x="261" y="1570" width="324" height="110" as="geometry" />
        </mxCell>
        <mxCell id="El48oxVZs8RGs7q6Qxy3-4" style="edgeStyle=orthogonalEdgeStyle;rounded=0;orthogonalLoop=1;jettySize=auto;html=1;" edge="1" parent="1" source="eB3IDwPpNGxF3hL3ic3N-53" target="eB3IDwPpNGxF3hL3ic3N-61">
          <mxGeometry relative="1" as="geometry">
            <mxPoint x="80" y="1840" as="targetPoint" />
            <Array as="points">
              <mxPoint x="75" y="1840" />
            </Array>
          </mxGeometry>
        </mxCell>
        <mxCell id="eB3IDwPpNGxF3hL3ic3N-53" value="total harga = harbar x jumbar x&amp;nbsp;DISKON_USIA_BAWAH_18 = 0.10" style="rounded=0;whiteSpace=wrap;html=1;" vertex="1" parent="1">
          <mxGeometry x="-20" y="1070" width="190" height="90" as="geometry" />
        </mxCell>
        <mxCell id="eB3IDwPpNGxF3hL3ic3N-86" style="edgeStyle=orthogonalEdgeStyle;rounded=0;orthogonalLoop=1;jettySize=auto;html=1;entryX=1;entryY=0.5;entryDx=0;entryDy=0;" edge="1" parent="1" target="eB3IDwPpNGxF3hL3ic3N-61">
          <mxGeometry relative="1" as="geometry">
            <mxPoint x="739.5" y="1831" as="targetPoint" />
            <mxPoint x="737" y="1440" as="sourcePoint" />
            <Array as="points">
              <mxPoint x="740" y="1440" />
              <mxPoint x="740" y="1820" />
            </Array>
          </mxGeometry>
        </mxCell>
        <mxCell id="eB3IDwPpNGxF3hL3ic3N-55" value="total harga = harbar x jumbar x DISKON_USIA_18_65 = 0.05" style="rounded=0;whiteSpace=wrap;html=1;" vertex="1" parent="1">
          <mxGeometry x="640" y="1340" width="205" height="100" as="geometry" />
        </mxCell>
        <mxCell id="eB3IDwPpNGxF3hL3ic3N-56" value="true" style="text;html=1;strokeColor=none;fillColor=none;align=center;verticalAlign=middle;whiteSpace=wrap;rounded=0;" vertex="1" parent="1">
          <mxGeometry x="555" y="1340" width="60" height="30" as="geometry" />
        </mxCell>
        <mxCell id="eB3IDwPpNGxF3hL3ic3N-57" value="false" style="text;html=1;strokeColor=none;fillColor=none;align=center;verticalAlign=middle;whiteSpace=wrap;rounded=0;" vertex="1" parent="1">
          <mxGeometry x="360" y="1500" width="60" height="30" as="geometry" />
        </mxCell>
        <mxCell id="eB3IDwPpNGxF3hL3ic3N-58" value="false" style="text;html=1;strokeColor=none;fillColor=none;align=center;verticalAlign=middle;whiteSpace=wrap;rounded=0;" vertex="1" parent="1">
          <mxGeometry x="365" y="1210" width="60" height="30" as="geometry" />
        </mxCell>
        <mxCell id="eB3IDwPpNGxF3hL3ic3N-59" value="true" style="text;html=1;strokeColor=none;fillColor=none;align=center;verticalAlign=middle;whiteSpace=wrap;rounded=0;" vertex="1" parent="1">
          <mxGeometry x="220" y="1060" width="60" height="30" as="geometry" />
        </mxCell>
        <mxCell id="eB3IDwPpNGxF3hL3ic3N-65" style="edgeStyle=orthogonalEdgeStyle;rounded=0;orthogonalLoop=1;jettySize=auto;html=1;" edge="1" parent="1" source="eB3IDwPpNGxF3hL3ic3N-61">
          <mxGeometry relative="1" as="geometry">
            <mxPoint x="414.5" y="1960" as="targetPoint" />
          </mxGeometry>
        </mxCell>
        <mxCell id="eB3IDwPpNGxF3hL3ic3N-61" value="Informasi Pembelian" style="shape=parallelogram;perimeter=parallelogramPerimeter;whiteSpace=wrap;html=1;fixedSize=1;" vertex="1" parent="1">
          <mxGeometry x="261" y="1760" width="307" height="120" as="geometry" />
        </mxCell>
        <mxCell id="eB3IDwPpNGxF3hL3ic3N-71" style="edgeStyle=orthogonalEdgeStyle;rounded=0;orthogonalLoop=1;jettySize=auto;html=1;" edge="1" parent="1">
          <mxGeometry relative="1" as="geometry">
            <mxPoint x="402.5" y="2140" as="targetPoint" />
            <mxPoint x="402.5" y="2060" as="sourcePoint" />
          </mxGeometry>
        </mxCell>
        <mxCell id="eB3IDwPpNGxF3hL3ic3N-73" style="edgeStyle=orthogonalEdgeStyle;rounded=0;orthogonalLoop=1;jettySize=auto;html=1;" edge="1" parent="1" source="eB3IDwPpNGxF3hL3ic3N-70">
          <mxGeometry relative="1" as="geometry">
            <mxPoint x="402.5" y="2350" as="targetPoint" />
          </mxGeometry>
        </mxCell>
        <mxCell id="eB3IDwPpNGxF3hL3ic3N-70" value="Tampilkan Harga per Barang" style="shape=parallelogram;perimeter=parallelogramPerimeter;whiteSpace=wrap;html=1;fixedSize=1;" vertex="1" parent="1">
          <mxGeometry x="232.5" y="2140" width="345" height="120" as="geometry" />
        </mxCell>
        <mxCell id="eB3IDwPpNGxF3hL3ic3N-76" value="Tampilkan Jumlah Barang yang Dibeli" style="shape=parallelogram;perimeter=parallelogramPerimeter;whiteSpace=wrap;html=1;fixedSize=1;" vertex="1" parent="1">
          <mxGeometry x="238" y="2350" width="330" height="110" as="geometry" />
        </mxCell>
        <mxCell id="eB3IDwPpNGxF3hL3ic3N-82" style="edgeStyle=orthogonalEdgeStyle;rounded=0;orthogonalLoop=1;jettySize=auto;html=1;" edge="1" parent="1" source="eB3IDwPpNGxF3hL3ic3N-78">
          <mxGeometry relative="1" as="geometry">
            <mxPoint x="420" y="2730" as="targetPoint" />
          </mxGeometry>
        </mxCell>
        <mxCell id="eB3IDwPpNGxF3hL3ic3N-78" value="Tampilkan Usia Pembeli" style="shape=parallelogram;perimeter=parallelogramPerimeter;whiteSpace=wrap;html=1;fixedSize=1;" vertex="1" parent="1">
          <mxGeometry x="255" y="2560" width="330" height="90" as="geometry" />
        </mxCell>
        <mxCell id="eB3IDwPpNGxF3hL3ic3N-80" style="edgeStyle=orthogonalEdgeStyle;rounded=0;orthogonalLoop=1;jettySize=auto;html=1;entryX=0.448;entryY=-0.047;entryDx=0;entryDy=0;entryPerimeter=0;" edge="1" parent="1" source="eB3IDwPpNGxF3hL3ic3N-76" target="eB3IDwPpNGxF3hL3ic3N-78">
          <mxGeometry relative="1" as="geometry" />
        </mxCell>
        <mxCell id="eB3IDwPpNGxF3hL3ic3N-102" style="edgeStyle=orthogonalEdgeStyle;rounded=0;orthogonalLoop=1;jettySize=auto;html=1;entryX=0.5;entryY=0;entryDx=0;entryDy=0;" edge="1" parent="1" source="eB3IDwPpNGxF3hL3ic3N-81" target="eB3IDwPpNGxF3hL3ic3N-83">
          <mxGeometry relative="1" as="geometry" />
        </mxCell>
        <mxCell id="eB3IDwPpNGxF3hL3ic3N-81" value="Tampilkan Diskon yang Diberikan" style="shape=parallelogram;perimeter=parallelogramPerimeter;whiteSpace=wrap;html=1;fixedSize=1;" vertex="1" parent="1">
          <mxGeometry x="269" y="3510" width="335" height="100" as="geometry" />
        </mxCell>
        <mxCell id="eB3IDwPpNGxF3hL3ic3N-114" style="edgeStyle=orthogonalEdgeStyle;rounded=0;orthogonalLoop=1;jettySize=auto;html=1;" edge="1" parent="1" source="eB3IDwPpNGxF3hL3ic3N-83">
          <mxGeometry relative="1" as="geometry">
            <mxPoint x="430" y="3910" as="targetPoint" />
          </mxGeometry>
        </mxCell>
        <mxCell id="eB3IDwPpNGxF3hL3ic3N-83" value="Tampilkan Total Harga Setelah Diskon" style="shape=parallelogram;perimeter=parallelogramPerimeter;whiteSpace=wrap;html=1;fixedSize=1;" vertex="1" parent="1">
          <mxGeometry x="276.5" y="3720" width="307" height="110" as="geometry" />
        </mxCell>
        <mxCell id="eB3IDwPpNGxF3hL3ic3N-96" style="edgeStyle=orthogonalEdgeStyle;rounded=0;orthogonalLoop=1;jettySize=auto;html=1;" edge="1" parent="1" source="eB3IDwPpNGxF3hL3ic3N-95">
          <mxGeometry relative="1" as="geometry">
            <mxPoint x="420" y="2980" as="targetPoint" />
          </mxGeometry>
        </mxCell>
        <mxCell id="eB3IDwPpNGxF3hL3ic3N-103" style="edgeStyle=orthogonalEdgeStyle;rounded=0;orthogonalLoop=1;jettySize=auto;html=1;" edge="1" parent="1" source="eB3IDwPpNGxF3hL3ic3N-95" target="eB3IDwPpNGxF3hL3ic3N-81">
          <mxGeometry relative="1" as="geometry">
            <mxPoint x="670" y="3570" as="targetPoint" />
            <Array as="points">
              <mxPoint x="671" y="2825" />
              <mxPoint x="671" y="3560" />
            </Array>
          </mxGeometry>
        </mxCell>
        <mxCell id="eB3IDwPpNGxF3hL3ic3N-95" value="usia dibawah 18" style="rhombus;whiteSpace=wrap;html=1;" vertex="1" parent="1">
          <mxGeometry x="300" y="2730" width="240" height="190" as="geometry" />
        </mxCell>
        <mxCell id="eB3IDwPpNGxF3hL3ic3N-99" style="edgeStyle=orthogonalEdgeStyle;rounded=0;orthogonalLoop=1;jettySize=auto;html=1;entryX=0.5;entryY=0;entryDx=0;entryDy=0;" edge="1" parent="1" source="eB3IDwPpNGxF3hL3ic3N-97" target="eB3IDwPpNGxF3hL3ic3N-98">
          <mxGeometry relative="1" as="geometry" />
        </mxCell>
        <mxCell id="eB3IDwPpNGxF3hL3ic3N-97" value="usia 18-65" style="rhombus;whiteSpace=wrap;html=1;" vertex="1" parent="1">
          <mxGeometry x="334" y="2980" width="172" height="180" as="geometry" />
        </mxCell>
        <mxCell id="eB3IDwPpNGxF3hL3ic3N-98" value="usia diatas 65" style="rhombus;whiteSpace=wrap;html=1;" vertex="1" parent="1">
          <mxGeometry x="315" y="3250" width="210" height="180" as="geometry" />
        </mxCell>
        <mxCell id="eB3IDwPpNGxF3hL3ic3N-101" style="edgeStyle=orthogonalEdgeStyle;rounded=0;orthogonalLoop=1;jettySize=auto;html=1;entryX=0.447;entryY=-0.011;entryDx=0;entryDy=0;entryPerimeter=0;" edge="1" parent="1" source="eB3IDwPpNGxF3hL3ic3N-98" target="eB3IDwPpNGxF3hL3ic3N-81">
          <mxGeometry relative="1" as="geometry" />
        </mxCell>
        <mxCell id="eB3IDwPpNGxF3hL3ic3N-107" style="edgeStyle=orthogonalEdgeStyle;rounded=0;orthogonalLoop=1;jettySize=auto;html=1;exitX=1;exitY=0.5;exitDx=0;exitDy=0;entryX=0.939;entryY=-0.021;entryDx=0;entryDy=0;entryPerimeter=0;" edge="1" parent="1" source="eB3IDwPpNGxF3hL3ic3N-97" target="eB3IDwPpNGxF3hL3ic3N-81">
          <mxGeometry relative="1" as="geometry" />
        </mxCell>
        <mxCell id="eB3IDwPpNGxF3hL3ic3N-108" value="false" style="text;html=1;strokeColor=none;fillColor=none;align=center;verticalAlign=middle;whiteSpace=wrap;rounded=0;" vertex="1" parent="1">
          <mxGeometry x="360" y="2930" width="60" height="30" as="geometry" />
        </mxCell>
        <mxCell id="eB3IDwPpNGxF3hL3ic3N-109" value="false" style="text;html=1;strokeColor=none;fillColor=none;align=center;verticalAlign=middle;whiteSpace=wrap;rounded=0;" vertex="1" parent="1">
          <mxGeometry x="365" y="3180" width="60" height="30" as="geometry" />
        </mxCell>
        <mxCell id="eB3IDwPpNGxF3hL3ic3N-111" value="true" style="text;html=1;strokeColor=none;fillColor=none;align=center;verticalAlign=middle;whiteSpace=wrap;rounded=0;" vertex="1" parent="1">
          <mxGeometry x="506" y="3040" width="60" height="30" as="geometry" />
        </mxCell>
        <mxCell id="eB3IDwPpNGxF3hL3ic3N-112" value="true" style="text;html=1;strokeColor=none;fillColor=none;align=center;verticalAlign=middle;whiteSpace=wrap;rounded=0;" vertex="1" parent="1">
          <mxGeometry x="566" y="2790" width="60" height="30" as="geometry" />
        </mxCell>
        <mxCell id="eB3IDwPpNGxF3hL3ic3N-113" value="selesai" style="strokeWidth=2;html=1;shape=mxgraph.flowchart.start_1;whiteSpace=wrap;" vertex="1" parent="1">
          <mxGeometry x="295" y="3910" width="270" height="100" as="geometry" />
        </mxCell>
        <mxCell id="eB3IDwPpNGxF3hL3ic3N-115" value="tampilkan Nama Pembeli" style="shape=parallelogram;perimeter=parallelogramPerimeter;whiteSpace=wrap;html=1;fixedSize=1;" vertex="1" parent="1">
          <mxGeometry x="255" y="1960" width="300" height="90" as="geometry" />
        </mxCell>
        <mxCell id="El48oxVZs8RGs7q6Qxy3-3" style="edgeStyle=orthogonalEdgeStyle;rounded=0;orthogonalLoop=1;jettySize=auto;html=1;exitX=0;exitY=0.5;exitDx=0;exitDy=0;exitPerimeter=0;entryX=0.947;entryY=0.333;entryDx=0;entryDy=0;entryPerimeter=0;" edge="1" parent="1" source="eB3IDwPpNGxF3hL3ic3N-32" target="eB3IDwPpNGxF3hL3ic3N-53">
          <mxGeometry relative="1" as="geometry" />
        </mxCell>
      </root>
    </mxGraphModel>
  </diagram>
</mxfile>
